<svg preserveAspectRatio="none" width="100%" height="100%" overflow="visible" style="display: block;" viewBox="0 0 76 55" fill="none" xmlns="http://www.w3.org/2000/svg">
<g id="Background" clip-path="url(#clip0_0_30)">
<path id="Vector" d="M72.8971 28.2945C72.8971 26.152 72.9457 24.0095 72.8772 21.8692C72.8396 20.7132 73.3722 20.5101 74.3513 20.5547C75.264 20.5971 76.0398 20.4275 76 21.8737C75.8961 25.6588 75.9403 29.4506 75.9845 33.2379C75.9956 34.1931 75.6398 34.3538 74.7579 34.4141C73.5269 34.4966 72.8109 34.0525 72.1633 33.0281C70.8063 30.8789 69.3278 28.8101 67.6636 26.7568C67.6393 27.1407 67.5951 27.5245 67.5929 27.9084C67.5752 29.6916 67.531 31.4748 67.5708 33.2558C67.5907 34.144 67.2702 34.4989 66.4083 34.3739C66.2646 34.3538 66.1121 34.3516 65.9685 34.3739C64.9165 34.5368 64.5651 34.115 64.5805 33.0259C64.6402 29.3501 64.585 25.6722 64.627 21.9964C64.6314 21.5278 64.9739 20.6529 65.1264 20.6618C65.9707 20.702 66.9564 20.115 67.6437 21.1506C69.1399 23.4002 70.6781 25.6208 72.2009 27.8526C72.3202 28.0289 72.4462 28.2008 72.57 28.3749C72.6783 28.3481 72.7888 28.3213 72.8971 28.2967V28.2945Z" fill="var(--fill-0, #1D1D1B)"/>
<path id="Vector_2" d="M25.9772 27.4888C25.9772 25.5561 25.9993 23.6234 25.9662 21.6929C25.9529 20.914 26.1562 20.4989 27.0181 20.5681C29.0956 20.7355 31.2637 20.5391 33.2351 21.0814C36.4596 21.9696 38.1216 25.1589 37.6221 28.6159C37.1491 31.8944 34.6385 34.202 31.2968 34.3538C29.8271 34.4207 28.353 34.3292 26.8833 34.3873C26.1098 34.4185 25.9396 34.0748 25.9463 33.3964C25.9662 31.4279 25.9529 29.4573 25.9529 27.4888H25.9772ZM29.1243 27.4844C29.1243 27.4844 29.1288 27.4844 29.131 27.4844C29.131 28.5222 29.1045 29.5599 29.1487 30.5955C29.1597 30.8722 29.3188 31.2985 29.5244 31.3878C30.8151 31.9569 33.0318 31.2739 33.739 30.0442C34.6517 28.4574 34.6805 26.7814 33.8119 25.1633C32.961 23.5765 31.4626 23.4025 29.9001 23.6011C29.615 23.6368 29.184 24.0854 29.1597 24.3733C29.0691 25.4021 29.1243 26.4444 29.1243 27.4821V27.4844Z" fill="var(--fill-0, #1D1D1B)"/>
<path id="Vector_3" d="M49.8681 27.5179C49.8747 23.5654 52.8627 20.3471 56.6022 20.4877C59.8311 20.6083 63.0932 23.2239 63.0556 27.5826C63.0202 31.6042 60.0101 34.5547 56.4851 34.5636C53.0064 34.5703 49.8902 31.7471 49.8681 27.5201V27.5179ZM59.7957 27.5625C59.8046 25.3151 58.3879 23.6212 56.4762 23.5944C54.6396 23.5676 53.1235 25.3642 53.1368 27.5469C53.1523 29.7496 54.6463 31.4793 56.5248 31.4681C58.3504 31.4547 59.7869 29.7407 59.7957 27.5647V27.5625Z" fill="var(--fill-0, #1D1D1B)"/>
<path id="Vector_4" d="M24.8059 34.3516C23.7693 34.3516 22.8919 34.4208 22.0389 34.3114C21.7626 34.2757 21.4068 33.8115 21.325 33.4812C20.9891 32.1198 20.1956 31.6511 18.8409 31.8408C18.0099 31.9569 17.1369 31.7806 16.3081 31.9033C15.9015 31.9636 15.3711 32.3229 15.2053 32.6911C14.4053 34.4743 13.5146 34.8738 11.4172 34.1172C11.7907 33.1241 12.1554 32.1287 12.5377 31.14C13.7555 27.991 15.044 24.8687 16.1711 21.6884C16.6043 20.4677 17.422 20.5882 18.3414 20.5547C19.2298 20.5212 19.8133 20.6797 20.1758 21.6817C21.5062 25.3798 22.9538 29.0355 24.3462 32.7134C24.523 33.1821 24.6202 33.6798 24.8059 34.3516ZM19.6608 28.9685C19.137 27.4777 18.6862 26.1922 18.2353 24.9067C18.1337 24.9134 18.032 24.9178 17.9325 24.9245C17.4795 26.2234 17.0242 27.5223 16.5203 28.9685H19.663H19.6608Z" fill="var(--fill-0, #1D1D1B)"/>
<path id="Vector_5" d="M47.7597 29.888C48.2835 30.4638 48.8426 30.957 49.2227 31.5641C49.3487 31.7672 49.1255 32.3831 48.8802 32.6041C46.4911 34.7354 44.133 35.1282 41.8301 33.8427C39.147 32.3474 37.7635 29.5979 38.1724 26.5805C38.6475 23.061 41.5671 20.3338 44.7982 20.481C46.4314 20.5547 47.8326 21.3269 49.0172 22.4272C49.2161 22.6102 49.1454 23.1659 49.0857 23.5297C49.0482 23.7573 48.7741 23.9336 48.6437 24.1568C48.1442 25.0049 47.7265 25.266 46.8182 24.4425C44.9794 22.782 42.2566 23.6033 41.6864 26.0226C41.4322 27.1005 41.4963 28.4396 41.9118 29.4528C42.7428 31.4793 44.9131 31.9234 46.7099 30.6803C47.0392 30.4526 47.3508 30.2005 47.7619 29.8902L47.7597 29.888Z" fill="var(--fill-0, #1D1D1B)"/>
<path id="Vector_6" d="M0.00442015 26.5894C-0.167966 23.0387 4.06874 20.1597 6.83134 20.4654C8.4248 20.6417 9.77073 21.3827 10.92 22.4629C11.1078 22.6414 11.11 23.1904 10.9951 23.4873C10.8382 23.8867 10.4603 24.188 10.2194 24.5607C9.83704 25.1522 9.49005 25.1098 8.97732 24.6701C7.51204 23.4091 6.15063 23.2596 4.85774 24.13C3.56043 25.0049 2.92835 26.9554 3.40793 28.6003C4.20135 31.3096 6.60149 32.1823 8.80051 30.4839C9.50332 29.9416 9.86577 30.013 10.4006 30.6691C11.5918 32.1287 11.6139 32.1533 10.047 33.2334C7.98499 34.6529 5.86111 35.1796 3.55822 33.7802C1.17576 32.3273 0.0198907 30.2094 0.00442015 26.5894Z" fill="var(--fill-0, #1D1D1B)"/>
<path id="Vector_7" d="M14.823 17.7694C16.0319 15.5756 19.4641 10.0385 26.3905 6.60161C35.3921 2.13358 43.8722 4.39884 45.9143 5.00588C43.2445 3.57308 38.7978 1.63813 33.0494 1.18731C22.0742 0.330303 13.9986 5.48795 11.0968 7.39835C6.22357 10.6099 2.85541 14.4419 0.60335 17.6556C5.34396 17.6936 10.0824 17.7315 14.823 17.7694Z" fill="var(--fill-0, #FFC425)"/>
<path id="Vector_8" d="M59.851 37.2506C58.6421 39.4445 55.2098 44.9815 48.2835 48.4185C39.2818 52.8865 30.8018 50.6212 28.7597 50.0142C31.4295 51.447 35.8761 53.382 41.6245 53.8328C52.5997 54.6898 60.6754 49.5321 63.575 47.6217C68.4482 44.4102 71.8185 40.5782 74.0706 37.3645C69.33 37.3265 64.5916 37.2886 59.851 37.2506Z" fill="var(--fill-0, #FEC32B)"/>
<path id="Vector_9" d="M7.07002 44.899C21.3206 57.118 39.9935 55.1585 45.0302 54.4197C47.795 54.0158 50.0361 53.4534 51.5102 53.036C43.9606 53.6676 37.9956 52.4535 34.3379 51.4113C30.2625 50.2508 25.4534 48.8224 20.7482 44.6825C17.6386 41.9463 15.718 39.0338 14.5975 37.0208C9.73316 36.9962 4.86658 36.9694 0.00221007 36.9449C2.57032 40.7278 5.19146 43.2854 7.07223 44.899H7.07002Z" fill="var(--fill-0, #0F3878)"/>
<path id="Vector_10" d="M67.6039 10.1189C53.013 -2.39024 33.8826 -0.0468674 29.6437 0.598117C26.9342 1.011 24.7396 1.57341 23.3008 1.98852C30.7819 1.36808 36.6983 2.57101 40.336 3.60656C44.4004 4.76262 49.2161 6.19096 53.9258 10.3354C57.0354 13.0715 58.9559 15.984 60.0764 17.9971C64.9408 18.0216 69.8074 18.0484 74.6717 18.073C72.1036 14.2901 69.4825 11.7325 67.6017 10.1189H67.6039Z" fill="var(--fill-0, #0E3874)"/>
</g>
<defs>
<clipPath id="clip0_0_30">
<rect width="76" height="55" fill="white"/>
</clipPath>
</defs>
</svg>
