<svg preserveAspectRatio="none" width="100%" height="100%" overflow="visible" style="display: block;" viewBox="0 0 328 60" fill="none" xmlns="http://www.w3.org/2000/svg">
<g id="Layer_1" clip-path="url(#clip0_0_210)">
<path id="Vector" d="M179.839 24.487C179.712 25.1376 179.473 25.7904 179.473 26.441C179.475 36.848 179.488 47.2573 179.556 57.6642C179.567 59.2387 179.053 59.8645 177.484 59.8103C174.751 59.7154 172.011 59.7899 169.274 59.7719C167.206 59.7583 166.479 58.997 166.479 56.9165C166.482 38.9759 166.484 21.0376 166.486 3.09702C166.486 0.515041 166.692 0.286887 169.243 0.273333C172.336 0.25752 175.434 0.332066 178.524 0.241708C180.087 0.196529 181.071 0.790633 181.83 2.17989C187.432 12.4129 193.065 22.6279 198.726 32.8271C199.133 33.5612 199.846 34.1147 200.417 34.7517C200.595 33.9227 200.924 33.0936 200.926 32.2623C200.952 22.2213 200.948 12.1803 200.902 2.13923C200.895 0.777079 201.433 0.262038 202.689 0.268815C205.604 0.286887 208.519 0.255262 211.434 0.271074C213.561 0.282369 213.856 0.614435 213.858 2.88242C213.88 17.4549 213.897 32.0274 213.926 46.5976C213.932 50.1487 213.983 53.6998 213.987 57.2509C213.989 59.5053 213.581 59.9074 211.362 59.9074C208.207 59.9074 205.053 59.7967 201.903 59.9142C200.41 59.9684 199.605 59.3201 198.944 58.0935C196.34 53.257 193.728 48.4229 191.07 43.6158C187.852 37.799 184.583 32.0139 181.341 26.2106C181.029 25.6526 180.761 25.0698 180.474 24.4983C180.261 24.4938 180.05 24.4915 179.837 24.487H179.839Z" fill="var(--fill-0, black)"/>
<path id="Vector_2" d="M54.8946 29.8995C54.8946 20.7191 54.9363 11.5365 54.8573 2.35609C54.8419 0.673168 55.4522 0.216859 56.9317 0.248485C59.7262 0.307217 62.5228 0.241708 65.3173 0.271074C67.3258 0.293664 67.8219 0.833553 67.8219 2.92534C67.8263 8.98385 67.8659 15.0446 67.7802 21.1031C67.7561 22.8199 68.2039 23.5134 69.982 23.4863C75.8102 23.3982 81.6405 23.4208 87.4687 23.4795C88.9922 23.4954 89.5914 22.9893 89.5717 21.3629C89.4992 15.3654 89.5388 9.36561 89.5256 3.3681C89.519 0.865178 90.0305 0.28011 92.3947 0.266556C95.1299 0.250744 97.8672 0.293664 100.602 0.259779C101.909 0.243967 102.519 0.664132 102.514 2.16859C102.479 20.7146 102.484 39.2606 102.523 57.8066C102.525 59.3268 102.025 59.878 100.554 59.8374C97.8211 59.7628 95.0816 59.8374 92.3464 59.8328C90.3268 59.8306 89.4553 58.8909 89.4663 56.8262C89.4992 50.4605 89.5234 44.0947 89.541 37.729C89.5475 35.5401 89.3083 35.3142 87.1965 35.3164C81.4869 35.3187 75.7751 35.3684 70.0676 35.2826C68.329 35.2555 67.7693 35.9105 67.7934 37.6432C67.8878 44.0066 67.879 50.3746 67.9207 56.7381C67.9361 59.1868 67.2775 59.8916 64.8738 59.9006C62.3165 59.9119 59.7591 59.9119 57.2017 59.9096C54.8836 59.9074 54.7607 59.7831 54.7607 57.4384C54.7585 48.258 54.7607 39.0776 54.7607 29.895H54.899L54.8946 29.8995Z" fill="var(--fill-0, black)"/>
<path id="Vector_3" d="M27.5274 0.268815C32.6422 0.268815 37.7569 0.259779 42.8717 0.273333C45.2359 0.277851 45.4312 0.49471 45.4312 2.85757C45.4312 4.93807 45.4356 7.01856 45.4312 9.09906C45.429 11.3535 45.2051 11.6088 42.9573 11.611C34.7495 11.6246 26.5418 11.611 18.3362 11.6223C17.5679 11.6223 16.7491 11.5703 16.0379 11.8121C14.5035 12.3339 13.2588 13.2375 13.1776 15.1372C13.0898 17.2109 12.9252 19.2847 12.9252 21.3584C12.9252 28.273 12.9734 35.1899 13.0195 42.1046C13.0525 47.0404 13.7571 47.8988 18.5997 47.9621C26.4474 48.066 34.2995 47.9869 42.1494 47.9824C45.249 47.9824 45.6068 48.3529 45.6003 51.5786C45.5959 53.4762 45.6068 55.3737 45.6003 57.2689C45.5937 59.442 45.1898 59.9029 43.1395 59.9074C32.9692 59.9345 22.799 59.9864 12.631 59.9458C5.73817 59.9187 0.318297 54.4565 0.10317 47.1466C-0.0834195 40.8486 0.0373148 34.5416 0.0482906 28.2369C0.0548762 23.5857 0.0087776 18.9323 0.160244 14.2856C0.291954 10.2195 1.29734 6.40187 4.44082 3.59399C6.59429 1.66936 9.23727 0.589586 12.0098 0.47438C17.175 0.259779 22.3534 0.413388 27.5274 0.413388C27.5274 0.36595 27.5274 0.318512 27.5274 0.268815Z" fill="var(--fill-0, black)"/>
<path id="Vector_4" d="M139.538 0.261939C144.716 0.261939 149.892 0.307118 155.069 0.239349C156.761 0.21676 157.426 0.851525 157.349 2.60673C157.251 4.86794 157.27 7.13819 157.345 9.40166C157.4 11.0778 156.722 11.6448 155.119 11.6335C146.848 11.5815 138.576 11.5996 130.303 11.6132C126.422 11.6199 124.804 13.2961 124.802 17.2673C124.8 26.0863 124.797 34.9052 124.808 43.7219C124.813 46.3197 125.612 47.413 128.11 47.901C129.499 48.172 130.948 48.1969 132.368 48.1991C139.749 48.2172 147.127 48.1878 154.507 48.1833C156.994 48.1833 157.321 48.5199 157.323 51.0048C157.323 53.2095 157.299 55.4142 157.328 57.619C157.347 59.1144 156.825 59.8102 155.227 59.8011C145.111 59.7424 134.985 60.0157 124.881 59.6498C120.122 59.4781 115.637 57.5986 113.549 52.5454C112.706 50.5078 112.07 48.2082 112.037 46.017C111.881 35.5468 111.881 25.0743 112.015 14.604C112.059 11.1659 112.858 7.70067 115.169 5.07802C116.491 3.57808 118.372 2.52541 120.141 1.53825C123.136 -0.12886 126.481 0.320672 129.719 0.268716C132.992 0.21676 136.265 0.257421 139.538 0.25968V0.261939Z" fill="var(--fill-0, black)"/>
<path id="Vector_5" d="M281.185 0.0970885C282.792 0.0970885 284.399 0.0880527 286.006 0.0970885C287.128 0.103865 287.734 0.52403 288.14 1.78904C289.624 6.39956 291.342 10.931 292.923 15.5099C293.983 18.5843 294.927 21.704 295.981 24.7806C297.454 29.0772 298.957 33.3647 300.518 37.6273C300.692 38.1039 301.326 38.4021 301.745 38.7816C302.02 38.4337 302.413 38.1288 302.549 37.7312C303.497 34.9369 304.382 32.12 305.31 29.3189C306.663 25.2347 307.997 21.1415 309.409 17.0776C310.996 12.5123 312.941 8.05537 314.199 3.39968C315.05 0.241662 316.778 -0.16495 319.399 0.0406148C321.528 0.207777 323.682 0.0406148 325.822 0.0857938C327.916 0.133232 328.41 1.03681 327.679 3.04502C325.921 7.8724 324.261 12.7359 322.494 17.5588C320.826 22.1128 319.01 26.6104 317.366 31.1757C315.355 36.7553 313.476 42.3847 311.503 47.9801C310.3 51.3933 309.038 54.784 307.778 58.1747C307.308 59.4352 306.5 60.0587 305.056 59.9887C302.503 59.8644 299.939 59.9231 297.381 59.9751C295.924 60.0045 295.188 59.4104 294.675 57.933C293.081 53.3519 291.244 48.8611 289.595 44.298C287.957 39.7643 286.471 35.1696 284.843 30.6313C283.844 27.846 282.641 25.1398 281.644 22.3545C280.094 18.0264 278.659 13.6576 277.14 9.31813C276.501 7.49289 275.796 5.69025 275.072 3.8989C274.016 1.28304 274.732 0.103865 277.438 0.0925706C278.687 0.0880527 279.939 0.0925706 281.188 0.0925706L281.185 0.0970885Z" fill="var(--fill-0, black)"/>
<path id="Vector_6" d="M255.612 27.0012C255.593 29.0704 253.94 30.7014 251.911 30.663C249.929 30.6246 248.371 29.0253 248.351 27.0058C248.329 24.9388 249.955 23.2649 251.982 23.274C254.023 23.2807 255.634 24.9343 255.612 27.0035V27.0012Z" fill="var(--fill-0, #F0863D)"/>
<path id="Vector_7" d="M282.079 49.7173L270.067 27.0238L258.053 4.32815C255.373 -0.736418 248.673 -0.736418 245.991 4.32815L221.965 49.7173C221.558 50.483 221.293 51.2782 221.15 52.0733C221.15 52.0733 221.016 52.8188 221.021 53.5033C221.043 55.7577 222.733 59.0399 224.941 59.2704C225.198 59.2952 225.674 59.1755 226.632 58.9744C227.755 58.7395 228.864 58.43 229.951 58.0483C234.989 56.2773 236.033 54.1742 241.032 51.8859C243.012 50.98 246.851 49.27 251.836 49.2316C252.888 49.2248 257.39 49.27 262.61 51.7345C263.967 52.376 265.266 53.1418 266.496 54.0341C267.964 55.0936 269.303 56.3586 270.822 57.339C274.528 59.7312 278.549 60.1965 280.229 59.2207C281.155 58.6853 281.748 57.8834 281.748 57.8834C281.748 57.8834 282.185 57.2215 282.496 56.3992C283.32 54.2284 283.159 51.7503 282.081 49.7173H282.079ZM261.644 30.2135C260.145 35.5378 257.01 39.9247 253.755 44.2167C253.241 44.8967 252.679 45.5382 251.979 46.3921C248.814 42.5835 245.936 38.7997 243.984 34.4061C243.045 32.294 242.171 30.0124 241.943 27.7331C241.484 23.1723 243.534 19.6597 247.497 17.6198C251.305 15.6568 255.12 16.1176 258.4 18.8984C261.882 21.8463 262.894 25.7769 261.644 30.2157V30.2135Z" fill="var(--fill-0, #F0863D)"/>
</g>
<defs>
<clipPath id="clip0_0_210">
<rect width="328" height="60" fill="white"/>
</clipPath>
</defs>
</svg>
