<svg preserveAspectRatio="none" width="100%" height="100%" overflow="visible" style="display: block;" viewBox="0 0 342 56" fill="none" xmlns="http://www.w3.org/2000/svg">
<g id="Layer_1" clip-path="url(#clip0_0_228)">
<path id="Vector" fill-rule="evenodd" clip-rule="evenodd" d="M241.789 0.037123C253.196 0.037123 261.075 0.296984 265.352 0.909513C271.549 1.7819 275.315 4.7703 276.722 9.98608C277.655 13.4942 278.185 19.5267 278.185 27.9907C278.185 36.4548 277.673 42.4872 276.722 45.9954C275.315 51.2111 271.549 54.1995 265.352 55.0719C261.075 55.6845 253.251 55.9443 241.972 55.9443H241.807V41.8005H241.935C248.425 41.8005 252.702 41.7077 254.896 41.4478C257.035 41.2251 258.625 40.6682 259.649 39.8329C260.581 39.0905 261.239 38.0139 261.568 36.5847C261.861 35.0998 262.043 32.761 262.043 29.4571C262.043 25.5963 261.915 22.7378 261.66 20.9002C261.404 19.0812 260.928 17.6891 260.289 16.7239C259.429 15.5545 258.022 14.8492 256.048 14.5522C254.073 14.2923 249.339 14.1624 241.862 14.1624H241.826V0.037123H241.789ZM241.789 55.9443C230.382 55.9443 222.504 55.6473 218.226 55.0719C212.066 54.1995 208.264 51.2111 206.856 45.9954C205.924 42.4872 205.449 36.3248 205.449 27.6752C205.449 19.0255 205.924 13.4756 206.856 9.96752C208.264 4.75174 212.066 1.76334 218.226 0.890951C222.504 0.278422 230.328 0.0185615 241.789 0.0185615V14.1995C233.289 14.1995 228.152 14.4223 226.397 14.8492C224.423 15.3689 223.107 16.594 222.504 18.413C221.864 20.2877 221.572 23.9258 221.572 29.4014C221.572 32.7425 221.736 35.1369 222.083 36.6032C222.723 39.3875 224.643 40.9466 227.933 41.3364C230.328 41.6891 234.952 41.819 241.789 41.819V55.9629V55.9443ZM186.09 34.1531H202.67C202.761 36.8074 202.798 38.5336 202.798 39.2761C202.798 43.4896 202.195 46.7935 200.915 49.1322C199.544 51.7865 196.857 53.6056 192.835 54.5522C188.814 55.4988 181.886 55.9814 172.015 55.9814C162.143 55.9814 154.32 55.7587 149.914 55.3689C145.545 54.9791 142.218 54.1995 139.988 53.0673C137.977 52.0278 136.478 50.6357 135.491 48.891C134.504 47.109 133.864 44.7146 133.572 41.6891C133.352 39.2204 133.224 34.7471 133.224 28.2691C133.224 21.7912 133.352 17.5035 133.572 14.6821C133.828 11.8979 134.303 9.72622 134.979 8.22274C136.515 4.78886 139.549 2.54292 144.211 1.50348C148.836 0.50116 158.14 -0.0185615 172.124 -0.0185615C179.125 -0.0185615 184.262 0.148492 187.425 0.464037C190.624 0.761021 193.146 1.37355 195.029 2.24594C197.515 3.41531 199.27 5.16009 200.294 7.46172C201.281 9.76334 201.793 13.1415 201.793 17.6148C201.793 17.8376 201.793 18.7471 201.756 20.3063H185.176C185.085 18.4872 185.012 17.3179 184.829 16.7053C184.701 16.0557 184.408 15.5731 183.933 15.1462C183.293 14.6265 181.703 14.1995 179.107 13.9768C176.548 13.7169 172.654 13.587 167.445 13.587C162.235 13.587 158.688 13.6798 156.714 13.9397C154.703 14.1624 153.296 14.5893 152.473 15.239C151.486 16.0557 150.81 17.3736 150.426 19.2668C150.042 21.1787 149.823 24.1671 149.823 28.2506C149.823 32.3341 149.987 35.2483 150.334 36.9374C150.682 38.6264 151.358 39.8515 152.345 40.5754C153.278 41.3179 154.74 41.7448 156.787 42.0046C158.835 42.2274 162.436 42.3573 167.554 42.3573C173.879 42.3573 178.12 42.2645 180.204 42.0603C182.343 41.8376 183.75 41.3735 184.481 40.6682C185.469 39.7587 185.98 37.5499 186.072 34.1531H186.09ZM70.7983 0.816705H128.983V13.6241H86.5739V21.4756H126.845V33.3735H86.5739V42.0974H129.276V55.1647H70.7983V0.816705ZM0 37.1601H16.324C16.2875 39.8515 16.8359 41.5406 17.9509 42.3202C18.7553 42.8399 19.8338 43.1369 21.1134 43.2297C22.393 43.3225 26.4146 43.3968 33.2147 43.4524C40.3073 43.4153 44.6214 43.3596 46.0473 43.3225C47.4548 43.2297 48.6064 43.0626 49.429 42.6729C50.6721 42.1903 51.3119 40.8538 51.3119 38.5893C51.3119 36.9745 50.8914 35.8979 49.9774 35.3411C49.1183 34.8213 47.3268 34.5244 44.6397 34.4687C42.5375 34.4687 38.1503 34.3016 31.4781 33.9861C24.5866 33.6334 20.108 33.4664 18.0058 33.4292C13.9842 33.2993 10.8583 32.9095 8.68299 32.297C6.54423 31.6473 4.84419 30.645 3.63771 29.2158C1.53552 26.9513 0.511839 23.0534 0.511839 17.5777C0.511839 11.4153 1.71832 7.12761 4.05815 4.60325C5.84959 2.59861 8.62815 1.33643 12.3938 0.816705C16.1595 0.259861 23.764 1.06659e-10 35.2621 1.06659e-10C43.3784 1.06659e-10 49.0634 0.222738 52.3538 0.686775C57.3991 1.37355 60.9089 2.76566 62.7917 4.80742C64.6745 6.942 65.6068 10.413 65.6068 15.3503C65.6068 15.8329 65.6068 16.6497 65.5703 17.9118H49.2828C49.1914 16.3898 49.1183 15.3503 48.8989 14.7935C48.6796 14.2367 48.2957 13.7912 47.7107 13.4571C46.9795 13.0302 45.6999 12.7703 43.8719 12.6404C42.0257 12.5104 38.1503 12.4733 32.2459 12.4733C25.0618 12.4733 20.7478 12.6961 19.1574 13.123C17.6219 13.5499 16.7993 14.7749 16.7993 16.761C16.7993 18.7471 17.6036 19.8422 19.1574 20.2691C20.437 20.6218 26.378 20.9559 36.9804 21.2715C45.9193 21.5313 51.8603 21.8283 54.8948 22.181C57.8927 22.5708 60.2873 23.2204 62.0788 24.2599C64.0896 25.4292 65.5337 27.0812 66.3563 29.123C67.2155 31.2019 67.5993 34.2088 67.5993 38.1067C67.5993 43.2297 66.923 47.0534 65.4971 49.522C64.4735 51.3968 62.9745 52.7332 61.1282 53.6427C59.2454 54.5522 56.5948 55.1647 53.1764 55.4617C49.5387 55.7587 42.7934 55.9443 32.8674 55.9443C24.5317 55.9443 18.4262 55.7216 14.4412 55.2947C10.511 54.9049 7.51307 54.1253 5.50227 53.0302C3.45491 51.8608 1.99252 50.3387 1.1882 48.4269C0.420439 46.5151 0 43.6009 0 39.703V37.1415L0 37.1601Z" fill="var(--fill-0, #00539F)"/>
<path id="Vector_2" fill-rule="evenodd" clip-rule="evenodd" d="M289.976 1.16943H307.287V18.8028H289.976V1.16943Z" fill="var(--fill-0, #7E91C5)"/>
<path id="Vector_3" fill-rule="evenodd" clip-rule="evenodd" d="M289.976 36.3248H307.287V18.8027H289.976V36.3248Z" fill="var(--fill-0, #FCBC8B)"/>
<path id="Vector_4" fill-rule="evenodd" clip-rule="evenodd" d="M289.976 36.3247H307.287V53.9581H289.976V36.3247Z" fill="var(--fill-0, #F79C7B)"/>
<path id="Vector_5" fill-rule="evenodd" clip-rule="evenodd" d="M324.634 1.16937H307.286V18.8028H324.634V1.16937Z" fill="var(--fill-0, #4A6EB1)"/>
<path id="Vector_6" fill-rule="evenodd" clip-rule="evenodd" d="M324.634 36.3248H307.286V18.8028H324.634V36.3248Z" fill="var(--fill-0, #F89E5C)"/>
<path id="Vector_7" fill-rule="evenodd" clip-rule="evenodd" d="M324.634 36.3248H307.286V53.9582H324.634V36.3248Z" fill="var(--fill-0, #F36F4B)"/>
<path id="Vector_8" fill-rule="evenodd" clip-rule="evenodd" d="M324.634 1.16937H342V18.8028H324.634V1.16937Z" fill="var(--fill-0, #00539F)"/>
<path id="Vector_9" fill-rule="evenodd" clip-rule="evenodd" d="M324.634 36.3248H342V18.8028H324.634V36.3248Z" fill="var(--fill-0, #F5822A)"/>
<path id="Vector_10" fill-rule="evenodd" clip-rule="evenodd" d="M324.634 36.3248H342V53.9582H324.634V36.3248Z" fill="var(--fill-0, #ED1C24)"/>
</g>
<defs>
<clipPath id="clip0_0_228">
<rect width="342" height="56" fill="white"/>
</clipPath>
</defs>
</svg>
