<svg preserveAspectRatio="none" width="100%" height="100%" overflow="visible" style="display: block;" viewBox="0 0 526 55" fill="none" xmlns="http://www.w3.org/2000/svg">
<g id="Layer_1" clip-path="url(#clip0_0_248)">
<path id="Vector" d="M46.1785 53.179C46.1785 50.5613 46.3761 48.1428 46.122 45.8096C45.8115 42.822 47.3922 41.1718 49.6221 39.8345C56.1142 35.9648 62.6345 32.1236 69.0984 28.1686C70.0863 27.5711 70.7355 26.4899 71.5541 25.6079C71.3847 25.3233 71.2154 25.0388 71.046 24.7827C62.8603 24.7827 54.6464 24.5551 46.4607 24.925C44.372 25.0103 42.3397 26.9452 40.3638 28.1971C27.4643 36.3347 14.5649 44.5008 1.66536 52.6384C1.12906 52.9798 0.508076 53.0936 0.0282265 53.2928C0.0282265 46.3218 -0.0846794 39.4361 0.141132 32.5789C0.169359 31.327 1.27019 29.6482 2.3428 28.9369C16.2302 20.0595 30.2023 11.3244 44.2026 2.58924C45.1906 1.96327 46.489 1.62183 47.6463 1.59338C55.6626 1.50802 63.6789 1.59338 71.667 1.53647C73.5299 1.53647 74.6308 1.96327 74.6308 4.15416C74.5743 20.4009 74.6308 36.6477 74.6308 53.179H46.2067H46.1785Z" fill="var(--fill-0, black)"/>
<path id="Vector_2" d="M258.188 26.9169C258.131 10.2149 269.281 0.796917 284.692 0.170947C290.733 -0.0851317 296.519 0.882277 301.882 3.61378C309.108 7.28424 312.862 13.7431 314.302 21.4539C315.854 29.9614 314.556 37.9852 309.08 45.0416C305.467 49.7079 300.612 52.098 295.08 53.5776C286.245 55.9392 277.692 55.114 269.958 50.3624C261.434 45.127 257.849 36.904 258.216 26.9169H258.188ZM271.68 27.3722C271.341 40.0908 278.821 42.5946 286.273 43.0783C295.193 43.6474 301.826 36.7333 301.459 27.5429C301.064 17.4136 296.293 11.9506 286.442 11.8937C277.918 11.8652 271.087 16.5031 271.68 27.3722Z" fill="var(--fill-0, black)"/>
<path id="Vector_3" d="M322.035 52.752V2.13382C331.491 2.13382 340.778 2.07691 350.092 2.16227C352.294 2.16227 354.552 2.4468 356.697 2.95896C361.919 4.2109 365.617 7.28384 367.31 12.6046C370.274 22.0226 370.077 31.526 367.847 40.9724C366.153 48.0857 361.101 52.2683 354.044 52.6098C343.515 53.1219 332.931 52.752 322.035 52.752ZM334.737 27.2011C334.737 31.4121 334.624 35.6232 334.822 39.8058C334.85 40.6879 335.923 42.2528 336.544 42.2528C340.241 42.3382 343.939 42.0536 347.637 41.8545C351.221 41.6553 354.185 39.9765 354.665 36.363C355.399 30.8146 355.85 25.124 355.399 19.5756C355.032 14.9093 352.237 13.2306 347.552 13.1167C344.165 13.0314 340.749 13.3159 337.419 12.8322C335.048 12.4908 334.652 13.3159 334.681 15.2507C334.709 19.2342 334.681 23.2176 334.681 27.1726L334.737 27.2011Z" fill="var(--fill-0, black)"/>
<path id="Vector_4" d="M423.707 36.7048H436.183C437.227 42.1963 441.659 43.0214 446.288 43.1352C449.393 43.2206 452.611 43.0783 455.575 42.2247C457.127 41.7695 458.877 39.7493 459.272 38.1275C459.893 35.6805 457.579 34.6277 455.518 34.3148C450.466 33.5181 445.385 32.9205 440.332 32.2661C435.167 31.5832 430.03 30.6158 426.868 25.9211C421.901 18.5517 424.582 6.74362 432.965 3.27233C443.296 -0.995648 453.486 -1.59316 463.422 4.29664C468.22 7.11351 471.015 12.2351 470.845 17.6696H458.736C455.321 11.5522 444.708 9.38976 438.78 13.7431C436.098 15.7064 436.268 18.8647 439.486 19.9459C442.788 21.0556 446.373 21.4539 449.845 21.9945C453.571 22.592 457.409 22.7059 461.079 23.5879C468.079 25.2666 471.918 29.7907 472.087 37.6438C472.228 43.5051 469.631 48.4844 464.071 51.3867C457.127 55.0287 449.647 55.6831 442.195 54.3458C437.764 53.5491 433.332 51.5858 429.437 49.2242C425.231 46.7203 424.272 41.9118 423.763 36.6764L423.707 36.7048Z" fill="var(--fill-0, black)"/>
<path id="Vector_5" d="M389.609 21.3398H412.36V32.8634H390.146C389.864 33.4324 389.666 33.6316 389.694 33.8023C389.694 36.42 388.819 39.749 390.089 41.3993C391.077 42.6797 394.747 41.883 397.231 41.9115C404.005 41.9399 410.751 41.9115 417.779 41.9115V53.2358H377.021V1.79248H417.864V13.0884C414.449 13.0884 410.977 13.1453 407.533 13.0884C402.142 13.003 396.751 12.7754 391.36 12.7754C390.767 12.7754 389.751 13.9135 389.694 14.5964C389.468 16.7019 389.609 18.8644 389.609 21.3683V21.3398Z" fill="var(--fill-0, black)"/>
<path id="Vector_6" d="M155.274 1.70719H168.766C168.766 8.16606 168.766 14.4827 168.766 20.8277C168.766 25.2664 168.766 29.7051 168.766 34.1154C168.766 38.2411 170.544 41.0864 174.609 41.9115C177.911 42.566 181.553 42.822 184.827 42.1676C189.258 41.314 190.952 37.4444 191.037 33.2902C191.206 22.8479 191.093 12.4056 191.093 1.7641H203.964V5.26384C203.964 14.9379 203.964 24.5835 203.964 34.2576C204.021 46.3218 196.259 52.3254 185.053 54.1749C178.702 55.2276 172.661 54.4594 166.734 52.0978C159.395 49.1671 155.641 43.3911 155.358 35.7941C154.935 24.5551 155.245 13.3161 155.245 1.73564L155.274 1.70719Z" fill="var(--fill-0, black)"/>
<path id="Vector_7" d="M153.778 53.4351C149.572 53.4351 145.733 53.5773 141.923 53.3497C140.935 53.2928 139.523 52.297 139.128 51.3864C138.084 49.0817 137.491 46.5494 136.644 43.8748C129.813 43.8748 122.926 43.7894 116.067 43.9602C115.277 43.9602 114.148 45.2121 113.781 46.1226C110.817 53.4066 110.845 53.4351 102.801 53.4351C101.164 53.4351 99.4983 53.4351 97.5224 53.4351C103.083 38.8671 108.474 24.6974 113.866 10.5561C113.894 10.4423 113.894 10.3285 113.95 10.2147C115.079 7.42628 115.474 3.41438 117.535 2.1909C119.991 0.739783 123.829 1.62183 127.075 1.56493C129.334 1.50802 131.564 1.56493 133.822 1.56493C140.483 18.8929 147.088 36.0502 153.778 53.4351ZM125.608 12.4056C123.011 19.6611 120.725 26.0916 118.382 32.6927H132.636C130.322 26.0062 128.12 19.6611 125.608 12.4056Z" fill="var(--fill-0, black)"/>
<path id="Vector_8" d="M526 1.56494C517.729 10.6984 510.023 19.2344 502.176 27.8841C509.882 36.1925 517.616 44.5293 525.858 53.4066C520.157 53.4066 514.963 53.492 509.741 53.3213C509.007 53.3213 508.273 52.1262 507.596 51.4149C502.543 45.8381 497.519 40.2328 492.071 34.1723V53.1506H478.579V1.73566H491.817V22.478C495.543 18.4377 498.648 15.0802 501.697 11.6658C504.237 8.8205 506.636 5.80447 509.205 2.9876C509.826 2.30472 510.842 1.67875 511.717 1.6503C516.205 1.50803 520.693 1.59339 525.971 1.59339L526 1.56494Z" fill="var(--fill-0, black)"/>
<path id="Vector_9" d="M226.489 12.8892H210.4V1.79248H255.873V12.9177H239.587V53.2358H226.489V12.8892Z" fill="var(--fill-0, black)"/>
</g>
<defs>
<clipPath id="clip0_0_248">
<rect width="526" height="55" fill="white"/>
</clipPath>
</defs>
</svg>
