<svg preserveAspectRatio="none" width="100%" height="100%" overflow="visible" style="display: block;" viewBox="0 0 293 75" fill="none" xmlns="http://www.w3.org/2000/svg">
<g id="Layer_1" clip-path="url(#clip0_0_258)">
<path id="Vector" fill-rule="evenodd" clip-rule="evenodd" d="M223.262 36.3545C221.242 31.1407 216.355 27.1119 211.125 25.8163C196.795 21.9612 178.66 23.4938 168.778 35.5646C163.046 42.9903 159.679 54.1447 163.954 63.5612C166.037 69.0594 171.816 73.0251 177.266 74.052C189.293 75.632 204.782 76.3113 214.445 67.4163C223.481 59.8167 226.519 47.1298 223.262 36.3703V36.3545ZM193.6 58.6792C192.253 59.1847 190.061 59.4217 188.824 58.458C185.958 56.878 186.913 53.3073 187.258 50.9216C188.604 46.4978 190.123 40.2728 195.573 39.4196C197.359 39.2458 199.614 40.0358 200.35 42.1371C200.851 48.5359 199.035 55.0453 193.616 58.6792H193.6Z" fill="var(--fill-0, #231F20)"/>
<path id="Vector_2" fill-rule="evenodd" clip-rule="evenodd" d="M63.3014 0L53.1845 29.5766L45.495 0H25.0731L0 72.2193H23.8672L33.3734 44.6809L40.4521 72.2193H62.0799L87.1686 0H63.3014Z" fill="var(--fill-0, #231F20)"/>
<path id="Vector_3" fill-rule="evenodd" clip-rule="evenodd" d="M102.877 21.5505C107.089 20.9343 111.521 19.5597 113.824 15.3729C115.515 12.0234 114.888 8.01032 112.868 5.05582C109.611 1.59574 105.116 1.26396 100.339 1.54835C95.9544 2.16452 91.5224 4.37645 89.9406 8.97409C89.2046 11.8654 89.3768 15.3729 91.2875 17.6954C94.0908 21.1555 98.6481 21.661 102.861 21.5505H102.877Z" fill="var(--fill-0, #231F20)"/>
<path id="Vector_4" fill-rule="evenodd" clip-rule="evenodd" d="M85.4929 26.3851L69.5188 72.2983H92.1645L108.139 26.3851H85.4929Z" fill="var(--fill-0, #231F20)"/>
<path id="Vector_5" fill-rule="evenodd" clip-rule="evenodd" d="M173.084 26.3219H146.805L133.65 41.8212L148.011 0H124.958L99.8853 72.2193H122.938L129.406 54.0657L133.055 72.2193H157.11L153.07 50.1949L173.084 26.3219Z" fill="var(--fill-0, #231F20)"/>
<path id="Vector_6" fill-rule="evenodd" clip-rule="evenodd" d="M276.619 25.7689C266.502 25.7689 259.83 30.256 256.4 33.321L259.031 26.3851H235.164L219.19 72.2825H243.057L250.747 50.2423C251.953 46.7664 253.989 45.139 257.418 45.139C260.848 45.139 261.663 48.6149 260.66 51.4588L253.378 72.2667H276.431L286.751 42.4847C289.586 34.3164 286.751 25.7531 276.634 25.7531L276.619 25.7689Z" fill="var(--fill-0, #231F20)"/>
<path id="Vector_7" fill-rule="evenodd" clip-rule="evenodd" d="M288.255 62.6764C285.608 62.6764 283.478 64.8252 283.478 67.4637C283.478 70.1022 285.608 72.2825 288.255 72.2825C290.901 72.2825 293 70.1338 293 67.4637C293 64.7936 290.886 62.6764 288.255 62.6764ZM288.255 71.6979C285.937 71.6979 284.073 69.8178 284.073 67.4637C284.073 65.1095 285.937 63.2452 288.255 63.2452C290.573 63.2452 292.436 65.1253 292.436 67.4637C292.436 69.802 290.573 71.6979 288.255 71.6979Z" fill="var(--fill-0, #231F20)"/>
<path id="Vector_8" fill-rule="evenodd" clip-rule="evenodd" d="M290.698 66.1997C290.698 65.7415 290.494 65.2675 290.103 65.0463C289.711 64.8094 289.257 64.7778 288.803 64.7778H286.485V70.1496H287.127V67.6691H288.317L289.837 70.1496H290.604L288.991 67.6691C289.93 67.6375 290.667 67.2583 290.667 66.1997H290.698ZM288.129 67.1477H287.127V65.2517H288.646C289.304 65.2517 290.024 65.3465 290.024 66.1839C290.024 67.2741 288.866 67.1477 288.114 67.1477H288.129Z" fill="var(--fill-0, #231F20)"/>
</g>
<defs>
<clipPath id="clip0_0_258">
<rect width="293" height="75" fill="white"/>
</clipPath>
</defs>
</svg>
