<svg preserveAspectRatio="none" width="100%" height="100%" overflow="visible" style="display: block;" viewBox="0 0 358.558 84.5856" fill="none" xmlns="http://www.w3.org/2000/svg">
<g id="Group 4">
<path id="Vector" fill-rule="evenodd" clip-rule="evenodd" d="M84.6157 8.50518H131.343V21.3774H116.454V75.1648H99.505V21.3753H84.6178V8.50518H84.6157Z" fill="var(--fill-0, #376298)"/>
<path id="Vector_2" fill-rule="evenodd" clip-rule="evenodd" d="M124.47 28.2726H139.357V35.397H139.586C141.417 29.4218 148.061 27.1214 154.016 27.1214V42.2919C151.952 41.6016 150.121 41.1428 147.833 41.1428C142.793 41.1428 141.19 42.2919 139.586 44.8197V75.1608H124.468V28.2726H124.47ZM157.911 28.2726H173.029V75.1651H157.911V28.2726ZM178.297 28.2726H193.184V34.4772H193.415C196.618 29.6512 201.429 27.1214 206.7 27.1214C211.278 27.1214 215.861 29.8806 216.09 34.4772H216.321C219.527 29.6512 224.339 27.1214 229.607 27.1214C235.79 27.1214 240.143 30.3394 240.143 37.005V75.163H225.025V41.8331C225.025 39.5327 224.339 37.6953 221.589 37.6953C219.987 37.6953 218.613 38.3835 217.696 39.7621L216.78 40.9134V75.163H201.662V41.8331C201.662 39.5327 200.745 37.6953 197.996 37.6953C196.393 37.6953 195.246 38.3835 194.103 39.7621L193.187 40.9134V75.163H178.299V28.2726H178.297ZM245.183 8.50539H260.296V30.8003H260.527C262.587 28.7314 266.71 27.1235 269.688 27.1235C279.997 27.1235 285.721 37.4659 285.721 51.0285C285.721 61.8319 281.138 75.6239 268.543 75.6239C262.587 75.6239 258.92 72.8646 255.944 68.2659L253.195 75.163H245.18V8.50539H245.185H245.183ZM260.296 59.9903C260.07 63.8966 262.36 66.1949 265.338 66.1949C269.462 66.1949 270.148 61.8277 270.148 53.3226V49.6436C270.148 40.4482 270.148 35.3949 265.338 35.3949C263.507 35.3949 262.131 36.5461 261.215 37.4617L260.298 38.152V59.9882L260.296 59.9903ZM289.615 8.50539H304.733V75.163H289.615V8.50539ZM323.746 53.5541C323.746 57.6919 324.432 64.8184 330.615 64.8184C334.05 64.8184 337.257 62.0592 338.174 58.3802L348.25 62.0592C347.564 64.126 342.983 74.9314 329.47 74.9314C315.038 74.9314 308.626 63.2104 308.626 50.1087C308.626 37.0071 315.495 25.747 329.47 25.747C343.445 25.747 348.94 38.1562 348.94 50.3424V53.5562H323.746V53.5541ZM334.967 44.5882C334.967 40.223 334.512 35.1655 329.241 35.1655C325.12 35.1655 323.746 40.223 323.746 44.5882H334.967ZM157.911 8.27387H173.029V21.8344H157.911V8.27387ZM54.38 58.6138C54.1514 59.7629 53.6921 60.6806 53.4635 61.373C53.2348 61.834 53.2348 62.0613 53.2348 62.2928C52.5469 62.981 52.0897 63.4419 51.8611 63.4419C48.4256 66.4285 45.678 68.0407 41.5546 69.4193C39.9522 69.8802 36.5167 70.5684 32.3932 70.5684L25.9794 74.0159C33.767 75.8533 40.1787 74.2474 42.6997 73.3277C47.509 71.947 50.7159 70.1096 54.6107 66.6621C55.5273 66.2012 59.6507 62.5243 62.3983 56.7785C62.8576 55.8588 63.3148 54.7117 63.7742 53.5604L54.3821 58.6159L54.38 58.6138ZM31.7032 12.8705H33.5363L31.4746 13.5608L37.2004 16.7789C41.7811 16.5474 46.3617 18.6163 49.34 21.8365C48.6521 21.8365 47.9683 22.0659 47.0497 22.0659L56.9011 27.3529V27.1235C57.31 27.3045 57.6372 27.6307 57.8176 28.0432L64.46 31.4907C64.2314 31.2613 64.2314 31.0298 64.2314 30.8003C64.2314 30.5709 64.0028 30.5709 64.0028 30.3394C64.0028 30.1079 63.7742 29.8806 63.7742 29.6512C61.9432 24.3642 58.279 19.7676 53.6963 16.0907C53.6963 15.8613 53.4676 15.8613 53.239 15.6298C46.368 10.1134 39.2642 8.96421 35.8308 8.7348H35.1429C33.0098 8.50539 30.86 8.50539 28.7291 8.7348C28.7291 8.96421 28.5005 8.96421 28.2698 8.96421C27.3532 8.96421 26.6674 9.19362 25.9794 9.42514C25.5201 9.42514 24.8322 9.65455 24.3749 9.65455L30.3294 13.102C30.7887 12.8726 31.248 12.8726 31.7053 12.8726L31.7032 12.8705ZM6.28087 52.405C5.36432 50.1045 4.67848 47.3453 4.67848 46.2003C4.37226 44.3608 4.21915 42.5985 4.21915 40.9134C4.21915 39.9936 4.44777 38.8466 4.44777 37.9247C4.90709 35.8579 5.13361 33.5575 6.50739 30.5688V21.8344C5.59084 23.2129 4.44777 24.8209 3.75983 26.6583C1.23878 31.2592 0.781552 34.7066 0.324324 37.2344C0.0957101 38.3835 -0.135001 39.7621 0.0957101 40.9113C0.0957101 43.6705 0.0957101 43.8978 0.324324 46.6571C0.552938 48.4945 1.47159 52.1692 2.84327 54.9285C3.59833 56.8858 4.59878 58.7401 5.82155 60.447C5.82155 60.6743 6.05016 60.6743 6.05016 60.9079C6.27878 61.1352 6.27878 61.3688 6.50949 61.5961V51.9419C6.50949 52.1713 6.28297 52.4029 6.28297 52.4029L6.28087 52.405Z" fill="var(--fill-0, #376298)"/>
<path id="Vector_3" fill-rule="evenodd" clip-rule="evenodd" d="M55.2967 37.0046C55.066 37.695 54.3801 38.1559 53.9229 38.8441C55.5253 41.8328 56.8991 44.8193 57.587 47.5786C58.0463 47.1176 58.275 46.8861 58.5036 46.2C61.2511 42.0622 61.7084 36.7752 59.8794 31.4882C59.727 31.3353 59.6508 31.1816 59.6508 31.0273L58.9629 29.6487C58.9629 29.4193 58.7343 29.1878 58.5036 28.9584C58.5036 28.729 58.275 28.2681 57.8156 28.0386L56.8991 27.3483C57.5891 30.7979 57.1298 34.0139 55.2967 37.0025V37.0046ZM29.4151 13.1017H29.1864C27.8106 13.3311 26.4368 13.5626 25.063 14.0214C26.2103 14.2508 27.3554 14.7118 28.4985 15.1706C29.4151 14.4802 30.3295 14.0214 31.4747 13.5626L30.3295 13.1017H29.413H29.4151ZM63.7722 53.5538L84.3873 42.2916L64.458 31.4903C67.2077 40.2248 66.0646 47.808 63.7722 53.5538ZM35.8267 16.7807H35.5981C34.9102 17.0101 33.9936 17.2416 33.3078 17.471C36.0553 19.079 39.0336 20.9185 41.7833 23.4441C43.6164 22.7559 45.4474 22.5244 47.0519 22.0655L37.2047 16.7807H35.8288H35.8267ZM45.4474 59.0723C33.9957 60.6781 22.0847 55.166 14.983 46.4273C12.2333 49.6454 10.4002 52.8655 9.7123 55.6248C9.48368 56.7739 9.48368 57.6916 9.7123 58.6113C10.1716 59.2996 10.6288 59.7605 11.0882 60.4508C12.9192 62.5197 17.4999 67.3437 25.0588 69.4147C27.5778 70.1029 30.0967 70.5639 32.3891 70.5639L54.378 58.6113C54.378 57.6916 54.6066 56.7739 54.6066 55.8521C51.8591 57.4643 48.8829 58.6134 45.4453 59.0723H45.4474ZM15.4444 39.305C18.192 36.7752 21.1703 34.4769 24.3772 32.1807L23.6913 30.8021C22.3175 26.6643 22.7748 22.5265 24.8365 19.079C24.8365 18.8496 25.0651 18.6181 25.0651 18.3887C22.7748 17.7004 20.4844 17.4689 18.6513 17.9277C17.4181 18.9359 16.405 20.1882 15.6751 21.6046C14.0706 24.1323 13.1541 27.1189 13.1541 30.1097C13.1541 32.1786 13.6134 34.4769 14.3014 36.5458C14.7586 37.6971 15.2158 38.3832 15.4465 39.305H15.4444ZM27.8106 29.192C27.8106 29.4214 27.8106 29.6529 28.0392 29.8824C30.7888 28.045 33.9957 26.4328 36.974 25.0563C34.5767 23.08 31.9634 21.3836 29.1864 19.9987L28.4985 21.3794C26.894 23.6756 26.6654 26.4349 27.8106 29.1941V29.192ZM44.3022 39.0756C45.9067 38.8462 47.2784 38.6147 48.4257 37.9244C46.364 34.4769 43.6164 31.2588 40.6381 28.2723C40.1788 28.5017 39.7216 28.7332 39.0357 28.9626C36.0595 30.1118 33.0813 31.7218 30.103 33.5592C33.5385 37.4676 39.0357 39.9933 44.3022 39.0756ZM16.1282 13.3311C18.4185 11.9504 20.4802 10.8034 24.3751 9.6542L6.5096 0V21.8361C10.633 16.3197 15.4444 13.5605 16.1303 13.3311H16.1282ZM51.6305 34.7063C53.2329 32.4059 53.2329 29.6487 52.3184 26.6601C52.3184 26.4307 52.0898 26.1991 52.0898 25.9697C50.0281 25.9697 47.7377 26.1991 45.2188 26.8895C47.7398 29.4193 49.7995 32.1765 51.6326 34.9357V34.7063H51.6305Z" fill="var(--fill-0, #376298)"/>
<path id="Vector_4" fill-rule="evenodd" clip-rule="evenodd" d="M44.7612 54.7031C48.4253 54.2422 51.4036 53.091 54.1511 51.2557C53.438 47.865 52.2027 44.607 50.487 41.5973C48.8007 42.5844 46.9299 43.2095 44.9898 43.4368C38.1188 44.3565 30.7884 41.1363 26.6671 35.8515C23.5714 38.0614 20.6602 40.5218 17.963 43.2073C23.9153 51.2578 34.6791 56.0817 44.7591 54.7031H44.7612ZM12.4637 42.7548C11.5471 41.1426 10.8592 39.7662 10.4019 38.1561C8.79954 33.5574 8.57092 29.1922 9.48538 25.0544C8.69886 26.1404 8.00883 27.2938 7.42576 28.5019C7.19714 29.1922 6.73782 29.8826 6.5092 30.5687V51.9439C7.65227 48.9574 9.71399 45.7351 12.4616 42.7506L12.4637 42.7548ZM60.1056 51.4872L58.7318 52.8679V54.4758C59.1911 53.5561 59.6504 52.6363 60.1056 51.4872ZM7.88299 63.2124C7.42366 62.7515 6.96643 62.0611 6.50711 61.6002V84.5855L25.9771 74.0137C25.2891 74.0137 24.6033 73.7863 23.6867 73.5527C14.9826 71.025 9.71609 65.5065 7.88299 63.2124ZM350.773 74.9313V70.3326H349.166V69.6443H352.832V70.3326H351.456V74.9313H350.773ZM354.206 74.9313H353.52V69.6443H354.433L356.039 73.7842L357.642 69.6443H358.558V74.9313H357.874V70.3326L356.268 74.9313H355.808L354.206 70.3326V74.9313Z" fill="var(--fill-0, #376298)"/>
</g>
</svg>
